<svg t="1641619719790" class="icon" viewBox="0 0 1024 1024" version="1.1" xmlns="http://www.w3.org/2000/svg" p-id="7328"
     width="48" height="48">
    <path d="M503.517612 433.875423v71.832836h20.556418c27.872159 0 41.795502-12.124975 41.795502-36.349453 0-23.66408-13.780697-35.483383-41.367562-35.483383h-20.989453z m276.464716-93.178906V140.099502c0-29.553353-23.954468-53.492537-53.497631-53.492537H298.488358c-29.548259 0-53.497632 23.939184-53.497632 53.492537v200.597015H145.19403V675.024876h99.796696v213.970149c0 29.543164 23.954468 53.492537 53.492538 53.492537h428.001433c29.543164 0 53.492537-23.949373 53.492537-53.492537v-213.970149H878.80597V340.696517h-98.823642z m-53.492537-187.22388v187.22388h-427.991244l-0.010189-187.22388h427.996339z m-110.755025 314.021572c0 22.787821-8.355025 41.061891-25.075264 54.796736-16.720239 13.755224-37.61799 20.337353-62.713631 19.761672h-24.428259v77.574368h-47.409672v-222.528955h76.58603c55.35204 0 83.040796 23.470488 83.040796 70.396179zM272.506269 568.625672l-16.373811 51.001313H204.682826l81.461492-222.528955h55.754508l79.882189 222.528955H370.056279l-16.664199-50.996219H272.506269z m239.9879 347.115622c-14.774129 0-26.761552-11.972139-26.761552-26.746269a26.761552 26.761552 0 0 1 53.512915 0 26.746269 26.746269 0 0 1-26.746268 26.746269zM726.484697 835.502488h-427.991244v-160.477612h427.991244V835.502488z m51.383403-313.211543c-16.71005 13.755224-37.61799 20.337353-62.708538 19.761672h-24.423164v77.574368h-47.414766v-222.528955h76.570746c55.377512 0 83.040796 23.470488 83.040796 70.396179 0 22.787821-8.34993 41.061891-25.065074 54.796736zM711.705473 433.875423h-20.97417v71.832836h20.530946c27.867065 0 41.82607-12.124975 41.826069-36.349453 0-23.66408-13.79598-35.483383-41.382845-35.483383z m-398.259582 1.579303h-1.304199a82.164537 82.164537 0 0 1-3.871841 18.824279l-25.431881 77.717015h59.341055l-25.284139-77.141333c-1.630249-4.890746-2.781612-11.350607-3.448995-19.394866z"
          p-id="7329"></path>
</svg>