<svg t="1646647034354" class="icon" viewBox="0 0 1024 1024" version="1.1" xmlns="http://www.w3.org/2000/svg" p-id="6281" width="96" height="96"><path d="M736 192a48 48 0 0 0 48-48V48a48 48 0 1 0-96 0v96a48 48 0 0 0 48 48z m-240 0a48 48 0 0 0 48-48V48a48 48 0 1 0-96 0v96a48 48 0 0 0 48 48z m464 640h-48v-48a48 48 0 1 0-96 0v48h-48a48 48 0 1 0 0 96h48v48a48 48 0 1 0 96 0v-48h48a48 48 0 1 0 0-96z m-288 48a96 96 0 0 1 96-96 96 96 0 1 1 192 0V144a48 48 0 0 0-48-48h-80v48a96 96 0 1 1-192 0V96h-48v48a96 96 0 1 1-192 0V96h-48v48a96 96 0 1 1-192 0V96H80a48 48 0 0 0-48 48v832a48 48 0 0 0 48 48h688v-48a96 96 0 0 1-96-96zM208 368h576a48 48 0 1 1 0 96H208a48 48 0 1 1 0-96z m296 496h-304a40 40 0 1 1 0-80h304a40 40 0 1 1 0 80zM624 672H208a48 48 0 1 1 0-96h416a48 48 0 1 1 0 96zM256 192a48 48 0 0 0 48-48V48a48 48 0 1 0-96 0v96a48 48 0 0 0 48 48z" p-id="6282"></path></svg>