<?xml version="1.0" standalone="no"?><!DOCTYPE svg PUBLIC "-//W3C//DTD SVG 1.1//EN" "http://www.w3.org/Graphics/SVG/1.1/DTD/svg11.dtd"><svg t="1665799927018" class="icon" viewBox="0 0 1024 1024" version="1.1" xmlns="http://www.w3.org/2000/svg" p-id="8399" xmlns:xlink="http://www.w3.org/1999/xlink" width="48" height="48"><path d="M490.666667 426.666667c-106.666667 0-192-85.333333-192-192s85.333333-192 192-192 192 85.333333 192 192-85.333333 192-192 192z m0-320c-70.4 0-128 57.6-128 128s57.6 128 128 128 128-57.6 128-128-57.6-128-128-128z" p-id="8400"></path><path d="M625.066667 541.866667c-10.666667 0-21.333333-6.4-27.733334-17.066667l-59.733333-102.4c-8.533333-14.933333-4.266667-34.133333 10.666667-42.666667 14.933333-8.533333 34.133333-4.266667 44.8 10.666667l59.733333 102.4c8.533333 14.933333 2.133333 34.133333-10.666667 42.666667-6.4 4.266667-12.8 6.4-17.066666 6.4zM277.333333 680.533333c-6.4 0-10.666667-2.133333-17.066666-4.266666-14.933333-8.533333-21.333333-27.733333-12.8-42.666667l138.666666-241.066667c8.533333-14.933333 27.733333-21.333333 44.8-10.666666 14.933333 8.533333 21.333333 27.733333 10.666667 42.666666l-138.666667 241.066667c-4.266667 8.533333-14.933333 14.933333-25.6 14.933333z" p-id="8401"></path><path d="M699.733333 981.333333H160C106.666667 981.333333 64 938.666667 64 885.333333v-170.666666C64 661.333333 106.666667 618.666667 160 618.666667h311.466667c17.066667 0 32 14.933333 32 32s-14.933333 32-32 32H160c-17.066667 0-32 14.933333-32 32v170.666666c0 17.066667 14.933333 32 32 32h539.733333c17.066667 0 32 14.933333 32 32s-12.8 32-32 32z" p-id="8402"></path><path d="M701.866667 981.333333c-142.933333 0-256-117.333333-256-258.133333 0-142.933333 117.333333-256 258.133333-256 142.933333 0 256 115.2 256 258.133333 0 140.8-115.2 256-258.133333 256z m0-450.133333c-106.666667 0-192 87.466667-192 194.133333s87.466667 192 194.133333 192 192-87.466667 192-194.133333-85.333333-192-194.133333-192z" p-id="8403"></path><path d="M765.866667 819.2c-8.533333 0-17.066667-4.266667-23.466667-8.533333l-128-128c-12.8-12.8-12.8-32 0-44.8 12.8-12.8 32-12.8 44.8 0l128 128c12.8 12.8 12.8 32 0 44.8-4.266667 6.4-12.8 8.533333-21.333333 8.533333z" p-id="8404"></path><path d="M637.866667 819.2c-8.533333 0-17.066667-4.266667-23.466667-8.533333-12.8-12.8-12.8-32 0-44.8l128-128c12.8-12.8 34.133333-10.666667 44.8 2.133333s10.666667 32 0 42.666667l-128 128c-4.266667 6.4-12.8 8.533333-21.333333 8.533333z" p-id="8405"></path></svg>