<svg t="1638094753851"  viewBox="0 0 1024 1024" version="1.1" xmlns="http://www.w3.org/2000/svg" p-id="4615" width="128" height="128"><path d="M491.498324 330.013759H248.910213c-13.908626 0-25.107779 11.199153-25.107779 25.107779s11.199153 25.107779 25.107779 25.107779h242.588111c13.908626 0 25.107779-11.199153 25.107779-25.107779 0-13.727994-11.199153-25.107779-25.107779-25.107779zM491.498324 513.354736H248.910213c-13.908626 0-25.107779 11.199153-25.107779 25.107779s11.199153 25.107779 25.107779 25.10778h242.588111c13.908626 0 25.107779-11.199153 25.107779-25.10778 0-13.727994-11.199153-25.107779-25.107779-25.107779zM491.498324 697.237608H248.910213c-13.908626 0-25.107779 11.199153-25.107779 25.107779s11.199153 25.107779 25.107779 25.107779h242.588111c13.908626 0 25.107779-11.199153 25.107779-25.107779s-11.199153-25.107779-25.107779-25.107779zM794.778621 697.237608h-61.053449c-13.908626 0-25.107779 11.199153-25.107779 25.107779s11.199153 25.107779 25.107779 25.107779H794.778621c13.908626 0 25.107779-11.199153 25.107779-25.107779S808.506615 697.237608 794.778621 697.237608z" p-id="4616"></path><path d="M960.056447 901.712471h-35.403775V637.087317c0-43.17093-22.940201-83.99365-59.608396-106.391956l-209.532546-128.067737V196.88834c0-39.197037-17.882519-75.503969-49.131769-99.166696-31.24925-23.843359-70.80755-31.429882-108.740166-20.953255L190.566237 169.793614C136.918681 184.786029 99.347328 234.09843 99.347328 289.913565v611.798906H63.943553c-13.908626 0-25.107779 11.199153-25.107779 25.107779S50.034927 951.92803 63.943553 951.92803h895.932263c13.908626 0 25.107779-11.199153 25.107779-25.10778s-11.199153-25.107779-24.927148-25.107779z m-354.760275 0H149.562886V289.913565c0-33.416828 22.578938-63.040395 54.731346-71.891339L511.187158 124.997001c22.578938-6.141471 46.061034-1.625684 64.666079 12.644206C594.458282 151.730464 605.296172 173.406244 605.296172 196.88834v704.824131z m269.140942 0H655.331099V461.332863l183.340977 111.991533c22.037044 13.366731 35.584406 37.751984 35.584407 63.582289v264.805786z" p-id="4617"></path></svg>