<svg viewBox="0 0 1117 1024" version="1.1" xmlns="http://www.w3.org/2000/svg" p-id="5074" width="128" height="128"><path d="M1089.163636 186.181818H27.927273a27.927273 27.927273 0 0 0-27.927273 27.927273v781.963636a27.927273 27.927273 0 0 0 27.927273 27.927273h1061.236363a27.927273 27.927273 0 0 0 27.927273-27.927273V214.109091a27.927273 27.927273 0 0 0-27.927273-27.927273z m-46.545454 735.418182a27.927273 27.927273 0 0 1-27.927273 27.927273H102.4a27.927273 27.927273 0 0 1-27.927273-27.927273V288.581818a27.927273 27.927273 0 0 1 27.927273-27.927273h912.290909a27.927273 27.927273 0 0 1 27.927273 27.927273z" p-id="5075"></path><path d="M130.327273 316.509091h111.709091v37.236364H130.327273z" p-id="5076"></path><path d="M875.054545 316.509091h111.709091v37.236364H875.054545z" p-id="5077"></path><path d="M549.236364 381.672727L418.909091 642.327273h83.781818l139.636364-260.654546H549.236364z" p-id="5078"></path><path d="M605.090909 567.854545L456.145455 828.509091h90.484363L698.181818 567.854545H605.090909z" p-id="5079"></path><path d="M465.454545 567.854545l-46.545454 74.472728h232.727273l46.545454-74.472728H465.454545z" p-id="5080"></path><path d="M186.181818 130.327273h37.236364v55.854545h111.709091v-55.854545h37.236363V0H186.181818zM744.727273 0v130.327273h37.236363v55.854545h111.709091v-55.854545h37.236364V0z" p-id="5081"></path></svg>