<svg t="1642309011761" class="icon" viewBox="0 0 1024 1024" version="1.1" xmlns="http://www.w3.org/2000/svg" p-id="12485" width="128" height="128"><path d="M170.666667 85.333333v810.666667h682.666666V469.333333h-85.333333V85.333333H170.666667z m682.666666-85.333333v981.333333H85.333333V0h768zM298.666667 768h42.666666c23.765333 0 42.666667-18.944 42.666667-42.581333v-85.504C384 616.490667 364.8 597.333333 341.333333 597.333333H298.666667v170.666667z m-42.666667 42.666667v-256h85.333333c47.146667 0 85.333333 38.314667 85.333334 85.248v85.504A85.077333 85.077333 0 0 1 341.333333 810.666667H256z m597.333333 0h-85.333333c-47.445333 0-85.333333-38.144-85.333333-85.248v-85.504c0-46.933333 38.186667-85.248 85.333333-85.248h85.333333v42.666666h-42.624c-46.933333 0-85.376 38.186667-85.376 85.333334 0 47.445333 38.229333 85.333333 85.376 85.333333H853.333333v42.666667z m-298.666666-42.666667c23.765333 0 42.666667-18.944 42.666666-42.581333v-85.504c0-23.424-19.2-42.581333-42.666666-42.581334-23.765333 0-42.666667 18.944-42.666667 42.581334v85.504c0 23.424 19.2 42.581333 42.666667 42.581333z m0 42.666667c-47.146667 0-85.333333-38.314667-85.333334-85.248v-85.504c0-47.104 37.888-85.248 85.333334-85.248 47.146667 0 85.333333 38.314667 85.333333 85.248v85.504A85.077333 85.077333 0 0 1 554.666667 810.666667z"  p-id="12486"></path></svg>