<svg t="1642308489481" class="icon" viewBox="0 0 1024 1024" version="1.1" xmlns="http://www.w3.org/2000/svg" p-id="10405" width="128" height="128"><path d="M938.666667 465.67619L585.142857 112.152381c-19.504762-19.504762-46.32381-29.257143-75.580952-29.257143-29.257143 0-56.07619 12.190476-73.142857 31.695238L85.333333 463.238095c-19.504762 19.504762-26.819048 51.2-14.628571 75.580953 9.752381 24.380952 36.571429 41.447619 63.390476 41.447619h43.885714v256c0 58.514286 46.32381 104.838095 104.838096 104.838095h455.923809c56.07619 0 104.838095-46.32381 107.276191-104.838095V580.266667h43.885714c29.257143 0 53.638095-17.066667 60.952381-39.009524 12.190476-24.380952 7.314286-56.07619-12.190476-75.580953z m-31.695238 58.514286c0 2.438095-7.314286 7.314286-17.066667 7.314286h-68.266667c-14.628571 0-24.380952 9.752381-24.380952 24.380952v277.942857c-2.438095 31.695238-26.819048 58.514286-58.514286 58.514286H285.257143c-29.257143 0-56.07619-26.819048-56.076191-56.07619V555.885714c0-14.628571-9.752381-24.380952-24.380952-24.380952h-68.266667c-7.314286 0-14.628571-4.87619-19.504762-12.190476-2.438095-7.314286 0-17.066667 4.876191-21.942857L470.552381 148.72381c7.314286-9.752381 21.942857-17.066667 36.571429-17.066667 17.066667 0 31.695238 4.87619 41.447619 14.628571L902.095238 499.809524c4.87619 4.87619 9.752381 14.628571 4.876191 24.380952z"  p-id="10406"></path><path d="M597.333333 536.380952h-82.895238l43.885715-117.028571c2.438095-4.87619 0-9.752381-2.438096-12.190476-2.438095-4.87619-7.314286-7.314286-12.190476-7.314286h-58.514286c-4.87619 0-12.190476 4.87619-12.190476 9.752381l-68.266666 177.980952c-2.438095 4.87619 0 9.752381 2.438095 12.190477 2.438095 4.87619 7.314286 7.314286 12.190476 7.314285h70.704762l-63.390476 168.228572c0 2.438095 0 4.87619 2.438095 4.87619h7.314286l173.104762-219.428571c4.87619-4.87619 4.87619-9.752381 2.438095-14.628572-4.87619-7.314286-9.752381-9.752381-14.628572-9.752381z" p-id="10407"></path></svg>