<svg t="1652052906854" class="icon" viewBox="0 0 1024 1024" version="1.1" xmlns="http://www.w3.org/2000/svg" p-id="24890" xmlns:xlink="http://www.w3.org/1999/xlink" width="128" height="128">
    <path d="M230.4 230.4m76.8 0l486.4 0q76.8 0 76.8 76.8l0 409.6q0 76.8-76.8 76.8l-486.4 0q-76.8 0-76.8-76.8l0-409.6q0-76.8 76.8-76.8Z" fill="#FFA86A" p-id="24891"></path>
    <path d="M102.4 256a76.8 76.8 0 0 1 76.8-76.8h223.6672a76.8 76.8 0 0 1 73.856 55.7056L497.3568 307.2H844.8a76.8 76.8 0 0 1 76.8 76.8v409.6a76.8 76.8 0 0 1-76.8 76.8H179.2a76.8 76.8 0 0 1-76.8-76.8V256z" fill="#8BCEF7" p-id="24892"></path>
</svg>