<svg t="1637487907219" class="icon" viewBox="0 0 1024 1024" version="1.1" xmlns="http://www.w3.org/2000/svg" p-id="1284" width="200" height="200"><path d="M800.2 140.1l-182.6 215c-4.3 5-0.7 12.8 5.9 12.8h108.3c5 0 8.7 4.7 7.5 9.6l-29.1 121.4c-1.9 7.8 7.8 12.9 13.2 7.1L919 295.2c4.6-5 1.1-13-5.7-13H806.4c-4.7 0-8.3-4.1-7.7-8.7l15.2-127.4c0.9-7.7-8.7-11.8-13.7-6z" fill="#B6F5FF" p-id="1285"></path><path d="M717.9 515.4c-2.4 0-4.8-0.6-7-1.8-6-3.2-9-9.8-7.4-16.5l29.1-121.4c0-0.1 0.1-0.4-0.1-0.7-0.2-0.3-0.5-0.3-0.6-0.3H623.6c-5.8 0-11-3.3-13.4-8.6-2.4-5.3-1.6-11.3 2.1-15.8l182.6-215c4.2-5 11.1-6.6 17.2-4 6 2.6 9.5 8.8 8.8 15.3L805.7 274c0 0.2 0 0.4 0.2 0.6 0.2 0.2 0.3 0.3 0.6 0.3h106.9c6 0 11.1 3.4 13.5 8.9 2.4 5.5 1.3 11.6-2.7 15.9l-195.5 211c-2.9 3.1-6.8 4.7-10.8 4.7z m87.7-370.7L623 359.6c-0.1 0.1-0.3 0.4-0.1 0.8 0.2 0.4 0.5 0.4 0.7 0.4h108.3c4.6 0 8.8 2 11.6 5.6 2.8 3.6 3.8 8.2 2.8 12.6l-29.1 121.4c-0.1 0.3-0.1 0.6 0.4 0.9 0.5 0.3 0.7 0 0.9-0.2l195.4-210.7c0.1-0.1 0.3-0.4 0.1-0.8-0.2-0.5-0.5-0.5-0.7-0.5H806.4c-4.2 0-8.2-1.8-11-5-2.8-3.2-4.1-7.4-3.6-11.6L807 145.1c0-0.3 0.1-0.6-0.5-0.8-0.6-0.1-0.8 0.2-0.9 0.4z" fill="#0F13AE" p-id="1286"></path><path d="M292.627 642.474L417.81 476.85l11.169 8.442-125.183 165.623z" fill="#49A3FE" p-id="1287"></path><path d="M301.569 485.244l11.232-8.356 123.2 165.595-11.232 8.356z" fill="#49A3FE" p-id="1288"></path><path d="M300.31 469.439l107.147-136.85 11.024 8.63-107.148 136.85z" fill="#49A3FE" p-id="1289"></path><path d="M311.396 341.15l11.135-8.485 104.31 136.888-11.135 8.486z" fill="#49A3FE" p-id="1290"></path><path d="M312.744 330.744l87.39-125.23 11.481 8.013-87.39 125.23z" fill="#49A3FE" p-id="1291"></path><path d="M317.891 213.48l11.522-7.953 87.942 127.4-11.522 7.954z" fill="#49A3FE" p-id="1292"></path><path d="M444.2 653.7H285l35-497h89.3l34.9 497z m-144.2-14h129.2l-33-469.1H333l-33 469.1z" fill="#0F13AE" p-id="1293"></path><path d="M314.5 270.2L191 223.6v-24.8h336v21.8L414.1 270l-5.6-12.8L510 212.8H205v1.1l114.4 43.2zM308.1 416l-189-56.1v-30h481.3V356l-180.2 58.9-4.3-13.3 170.5-55.7v-2H133.1v5.6l179 53z" fill="#0F13AE" p-id="1294"></path><path d="M203.9 227h14v40.3h-14zM497.8 227h14v40.3h-14zM203.9 281.6h14V295h-14zM497.8 281.6h14V295h-14zM143.1 362h14v40.3h-14zM564.5 357.5h14v40.3h-14zM276.1 849.9h-60.3l70.1-205.4 13.2 4.5-63.7 186.9h34.2l161.7-193.6 10.8 8.9z" fill="#0F13AE" p-id="1295"></path><path d="M267.511 838.377l163.866-196.173 10.745 8.976-163.866 196.173z" fill="#0F13AE" p-id="1296"></path><path d="M513.4 849.9h-60.3L287.2 651.2l10.7-8.9 161.7 193.6h34.3L430.1 649l13.2-4.5z" fill="#0F13AE" p-id="1297"></path><path d="M287.12 651.248l10.745-8.975 163.866 196.173-10.745 8.975z" fill="#0F13AE" p-id="1298"></path><path d="M143.1 417.5h14v13.4h-14z" fill="#0F13AE" p-id="1299"></path><path d="M564.5 410.8h14v13.4h-14z" fill="#0F13AE" p-id="1300"></path><path d="M793.4 837.8h-14v-130h-59.6v130h-14v-144h87.6z" fill="#49A3FE" p-id="1301"></path><path d="M910.1 632.6h-321V571h321v61.6z m-307-14h293V585h-293v33.6z" fill="#0F13AE" p-id="1302"></path><path d="M897.7 845.2H601.5V631.1h14v200.1h268.2V628.5h14z" fill="#0F13AE" p-id="1303"></path></svg>