<svg t="1642122050105" class="icon" viewBox="0 0 1024 1024" version="1.1" xmlns="http://www.w3.org/2000/svg" p-id="6612" width="128" height="128"><path d="M960 722.7L828.1 720l-43.3-124.2L741.5 720l-131.9 2.7 105.1 79.4L676.5 928l108.3-75.1L893.1 928l-38.2-125.9zM677.3 632.4c10.1-12.2 8.3-30.2-3.9-40.2-38-31.2-82-53.4-128.5-67.5 71.5-38.7 120.8-113.4 120.8-200.1 0-126-102.8-228.5-229.2-228.5S207.3 198.5 207.3 324.5c0 86.1 48.6 160.4 119.4 199.4C174.7 570.7 64 712.1 64 878.7c0 15.8 12.8 28.6 28.7 28.6s28.7-12.8 28.7-28.6c0-173.3 141.4-314.2 315.2-314.2 73 0 144.2 25.5 200.5 71.8 12.1 10 30.1 8.2 40.2-3.9zM264.6 324.5c0-94.5 77.1-171.4 171.9-171.4S608.4 230 608.4 324.5s-77.1 171.4-171.9 171.4S264.6 419 264.6 324.5z"  p-id="6613"></path></svg>