<svg t="1642309190599" class="icon" viewBox="0 0 1024 1024" version="1.1" xmlns="http://www.w3.org/2000/svg" p-id="12651" width="128" height="128"><path d="M512 17.152l400.448 231.168-198.912 105.792c9.92 12.608 18.688 26.24 26.112 40.64l6.976 14.72 193.92-103.424v453.376L544 988.352v-222.336a257.28 257.28 0 0 1-15.872 1.472L512 768l-16.192-0.512-15.872-1.472v222.336l-396.48-228.928V305.216l194.048 103.872c6.592-14.912 14.528-29.056 23.68-42.368l9.6-12.928-198.464-105.856L512 17.152zM512 352a160 160 0 1 0 88.64 293.248l3.456 4.096 90.56 90.56a32 32 0 0 0 45.248-45.248l-90.56-90.56a29.312 29.312 0 0 0-4.096-3.456A160 160 0 0 0 512 352z m0 64a96 96 0 1 1 0 192 96 96 0 0 1 0-192z"  p-id="12652"></path></svg>