<svg t="1642309564830" class="icon" viewBox="0 0 1024 1024" version="1.1" xmlns="http://www.w3.org/2000/svg" p-id="13868" width="128" height="128"><path d="M512 64C264.6 64 64 264.6 64 512c0 247.4 200.6 448 448 448 247.4 0 448-200.6 448-448C960 264.6 759.4 64 512 64zM783.6 783.6c-65 65-149.2 103.8-239.6 111.2L528 768l-32 0-15.8 126.6c-90.6-7.4-174.8-46.2-239.6-111.2-65-65-103.8-149.2-111.2-239.6L256 528l0-32-126.6-15.8c7.4-90.6 46.2-174.8 111.2-239.6 65-65 149.2-103.8 239.6-111.2L496 256l32 0 15.8-126.6c90.6 7.4 174.8 46.2 239.6 111.2 65 65 103.8 149.2 111.2 239.6L768 496l0 32 126.6 15.8C887.2 634.4 848.4 718.6 783.6 783.6z" p-id="13869"></path></svg>