<svg  viewBox="0 0 1024 1024" version="1.1" xmlns="http://www.w3.org/2000/svg" p-id="4058" width="128" height="128"><path d="M785.6 154.2H680.3c-51.7 0-93.7 42-93.7 93.7v105.3c0 51.7 42 93.7 93.7 93.7h105.3c51.7 0 93.7-42 93.7-93.7V247.9c0-51.7-42-93.7-93.7-93.7z m48.3 93.7v105.3c0 26.6-21.6 48.3-48.3 48.3H680.3c-26.6 0-48.3-21.6-48.3-48.3V247.9c0-26.6 21.6-48.3 48.3-48.3h105.3c26.6 0 48.3 21.7 48.3 48.3z" fill="#FF4E7D" p-id="4059"></path><path d="M873 487.3h-2l-57.7 0.2c-10.2 0.1-18.5 8.5-18.5 18.7s8.3 18.6 18.5 18.7l57.6 0.2h2.1c10.3-0.1 18.7-8.6 18.7-18.9 0-10.3-8.4-18.8-18.7-18.9z" fill="#4E30DC" p-id="4060"></path><path d="M871 530.6l-57.7-0.2c-13.3-0.2-24-11-24-24.2s10.7-24 23.9-24.2l57.8-0.2h2.1c13.3 0.2 24.1 11.1 24.1 24.4 0 13.3-10.8 24.2-24.1 24.4H871z m-0.1-37.9l-57.6 0.2c-7.2 0.1-13 6-13 13.2 0 7.2 5.9 13.1 13.1 13.2l57.5 0.2h2c7.3-0.1 13.3-6.1 13.3-13.4 0-7.3-5.9-13.3-13.3-13.4h-2z" fill="#4E30DC" p-id="4061"></path><path d="M233.8 442.6h106.1c49.1 0 89-39.9 89-89V247.5c0-49.1-39.9-89-89-89H233.8c-49.1 0-89 39.9-89 89v106.1c0 49.1 39.9 89 89 89z m-54-89V247.5c0-29.8 24.2-54 54-54h106.1c29.8 0 54 24.2 54 54v106.1c0 29.8-24.2 54-54 54H233.8c-29.8 0-54-24.2-54-54z" fill="#4E30DC" p-id="4062"></path><path d="M339.9 448H233.8c-52.1 0-94.4-42.3-94.4-94.4V247.5c0-52.1 42.3-94.4 94.4-94.4h106.1c52.1 0 94.4 42.3 94.4 94.4v106.1c0 52-42.3 94.4-94.4 94.4zM233.8 163.8c-46.1 0-83.7 37.5-83.7 83.7v106.1c0 46.1 37.5 83.7 83.7 83.7h106.1c46.1 0 83.7-37.5 83.7-83.7V247.5c0-46.1-37.5-83.7-83.7-83.7H233.8zM339.9 413H233.8c-32.8 0-59.4-26.7-59.4-59.4V247.5c0-32.8 26.7-59.4 59.4-59.4h106.1c32.8 0 59.4 26.7 59.4 59.4v106.1c0 32.7-26.6 59.4-59.4 59.4zM233.8 198.8c-26.8 0-48.7 21.8-48.7 48.7v106.1c0 26.8 21.8 48.7 48.7 48.7h106.1c26.8 0 48.7-21.8 48.7-48.7V247.5c0-26.8-21.8-48.7-48.7-48.7H233.8zM339.9 576.6H233.8c-49.1 0-89.1 40-89.1 89.1v106.1c0 49.1 40 89.1 89.1 89.1h106.1c49.1 0 89.1-40 89.1-89.1V665.7c0-49.1-40-89.1-89.1-89.1z m54.1 89.1v106.1c0 29.8-24.3 54.1-54.1 54.1H233.8c-29.8 0-54.1-24.3-54.1-54.1V665.7c0-29.8 24.3-54.1 54.1-54.1h106.1c29.8 0 54.1 24.3 54.1 54.1z" fill="#4E30DC" p-id="4063"></path><path d="M339.9 866.2H233.8c-52 0-94.4-42.3-94.4-94.4V665.7c0-52 42.3-94.4 94.4-94.4h106.1c52 0 94.4 42.3 94.4 94.4v106.1c0 52-42.3 94.4-94.4 94.4zM233.8 581.9c-46.2 0-83.7 37.6-83.7 83.7v106.1c0 46.2 37.6 83.7 83.7 83.7h106.1c46.2 0 83.7-37.6 83.7-83.7v-106c0-46.2-37.6-83.7-83.7-83.7H233.8z m106.1 249.3H233.8c-32.7 0-59.4-26.6-59.4-59.4V665.7c0-32.7 26.6-59.4 59.4-59.4h106.1c32.7 0 59.4 26.6 59.4 59.4v106.1c0 32.8-26.6 59.4-59.4 59.4zM233.8 616.9c-26.9 0-48.7 21.9-48.7 48.7v106.1c0 26.9 21.9 48.7 48.7 48.7h106.1c26.9 0 48.7-21.9 48.7-48.7v-106c0-26.9-21.9-48.7-48.7-48.7H233.8zM790.3 575.7H683.4c-49.4 0-89.7 40.2-89.7 89.7v106.8c0 49.4 40.2 89.7 89.7 89.7h106.8c49.4 0 89.7-40.2 89.7-89.7V665.3c0.1-49.4-40.2-89.6-89.6-89.6z m54.4 89.6v106.8c0 30-24.4 54.4-54.4 54.4H683.4c-30 0-54.4-24.4-54.4-54.4V665.3c0-30 24.4-54.4 54.4-54.4h106.8c30.1 0 54.5 24.4 54.5 54.4z" fill="#4E30DC" p-id="4064"></path><path d="M790.3 867.2H683.4c-52.4 0-95-42.6-95-95V665.3c0-52.4 42.6-95 95-95h106.8c52.4 0 95 42.6 95 95v106.8c0.1 52.5-42.5 95.1-94.9 95.1zM683.4 581c-46.5 0-84.3 37.8-84.3 84.3v106.8c0 46.5 37.8 84.3 84.3 84.3h106.8c46.5 0 84.3-37.8 84.3-84.3V665.3c0-46.5-37.8-84.3-84.3-84.3H683.4z m106.9 251H683.4c-33 0-59.8-26.8-59.8-59.8V665.3c0-33 26.8-59.8 59.8-59.8h106.8c33 0 59.8 26.8 59.8 59.8v106.8c0.1 33-26.7 59.9-59.7 59.9zM683.4 616.2c-27.1 0-49.1 22-49.1 49.1v106.8c0 27.1 22 49.1 49.1 49.1h106.8c27.1 0 49.1-22 49.1-49.1V665.3c0-27.1-22-49.1-49.1-49.1H683.4z" fill="#4E30DC" p-id="4065"></path><path d="M630.6 526.9h0.2c10.3-0.1 18.6-8.6 18.6-18.9 0-10.3-8.3-18.8-18.6-18.9H530.3V326.7c-0.2-10.1-8.6-18.4-18.7-18.4-10.2 0-18.6 8.3-18.7 18.4V489H328.8l-153.8 0.2h-0.3c-10.1 0.3-18.2 8.6-18.2 18.7 0 10.2 8.3 18.6 18.4 18.7h0.1l153.8 0.2h163.9V693.3c0.1 10.3 8.6 18.6 18.9 18.6s18.8-8.4 18.9-18.7V526.8l100.1 0.1z" fill="#4E30DC" p-id="4066"></path><path d="M511.6 717.4c-13.3 0-24.3-10.8-24.4-24v-161H328.8l-153.8-0.2h-0.1c-13.2-0.2-23.9-11-23.9-24.2 0-13 10.6-23.9 23.6-24.2h0.4l153.7-0.2h158.6V326.7c0.2-13.2 11-23.9 24.2-23.9 13.1 0 24 10.7 24.2 23.8V483.5h95c13.3 0.2 24.1 11.1 24.1 24.4 0 13.3-10.8 24.3-24 24.4H536v160.9c-0.2 13.4-11.1 24.2-24.4 24.2z m-13.5-24.1c0.1 7.3 6.1 13.2 13.4 13.2 7.3 0 13.3-5.9 13.4-13.2V521.5h105.7c7.3-0.1 13.2-6.1 13.2-13.4 0-7.3-5.9-13.3-13.2-13.4H524.7l-0.1-6.6V327c-0.1-7.1-6.1-13-13.2-13-7.2 0-13.1 5.8-13.2 13v162.3l-0.1 5.4H328.5l-153.9 0.2c-7.1 0.2-12.9 6.1-12.9 13.2 0 7.2 5.8 13.1 13 13.2l153.8 0.2h169.4l0.2 171.8z" fill="#4E30DC" p-id="4067"></path><path d="M511.6 782.3c-10.2 0-18.6 8.3-18.7 18.4l-0.2 59.8v0.1c0.1 10.3 8.6 18.6 18.9 18.6s18.8-8.4 18.9-18.6l-0.2-59.8c-0.2-10.2-8.6-18.5-18.7-18.5z" fill="#4E30DC" p-id="4068"></path><path d="M511.6 884.7c-13.3 0-24.3-10.8-24.4-24.1v-0.2l0.2-59.8c0.2-13.2 11-23.9 24.2-23.9s24 10.7 24.2 23.9l0.2 59.8c-0.2 13.5-11.1 24.3-24.4 24.3z m0-96.9c-7.2 0-13.1 5.8-13.2 13l-0.2 59.8c0.1 7.2 6.1 13.1 13.4 13.1s13.3-5.9 13.4-13.2l-0.2-59.7c-0.1-7.1-6.1-13-13.2-13z" fill="#4E30DC" p-id="4069"></path><path d="M510.6 247.7c10.6 0 19.3-8.6 19.5-19.1v-0.1l-0.2-62.1c-0.1-10.5-8.8-19-19.2-19-10.5 0-19.1 8.5-19.3 18.9l-0.2 62.2v0.2c0.1 10.4 8.8 19 19.4 19z" fill="#4E30DC" p-id="4070"></path><path d="M510.6 253.2c-13.6 0-24.8-11-25-24.6v-0.2l0.2-62.2c0.2-13.5 11.3-24.4 24.8-24.4s24.6 11 24.7 24.5l0.2 62.3v0.1c-0.1 13.5-11.3 24.5-24.9 24.5z m0-100.4c-7.5 0-13.7 6-13.8 13.4l-0.2 62.3c0.1 7.5 6.4 13.7 14 13.7s13.9-6.2 14-13.7v-0.1l-0.2-62c-0.1-7.5-6.3-13.6-13.8-13.6z" fill="#4E30DC" p-id="4071"></path></svg>