<svg t="1635819656002" class="icon" viewBox="0 0 1024 1024" version="1.1" xmlns="http://www.w3.org/2000/svg" p-id="10032" width="128" height="128"><path d="M736 704h-448c-19.2 0-32-12.8-32-32s12.8-32 32-32h448c19.2 0 32 12.8 32 32s-12.8 32-32 32zM736 832h-448c-19.2 0-32-12.8-32-32s12.8-32 32-32h448c19.2 0 32 12.8 32 32s-12.8 32-32 32z"  p-id="10033"></path><path d="M832 128c38.4 0 64 25.6 64 64v640c0 38.4-25.6 64-64 64H192c-38.4 0-64-25.6-64-64V192c0-38.4 25.6-64 64-64h640m0-64H192c-70.4 0-128 57.6-128 128v640c0 70.4 57.6 128 128 128h640c70.4 0 128-57.6 128-128V192c0-70.4-57.6-128-128-128z" p-id="10034"></path><path d="M512 441.6c-70.4 0-121.6-57.6-121.6-128S441.6 192 512 192s121.6 57.6 121.6 121.6-51.2 128-121.6 128zM512 256c-32 0-57.6 25.6-57.6 57.6s25.6 57.6 57.6 57.6 57.6-25.6 57.6-57.6S544 256 512 256z"  p-id="10035"></path><path d="M710.4 576h-64c0-76.8-64-134.4-134.4-134.4S377.6 499.2 377.6 576h-64c0-108.8 89.6-198.4 198.4-198.4s198.4 89.6 198.4 198.4z"  p-id="10036"></path></svg>