<svg t="1646744768481" class="icon" viewBox="0 0 1024 1024" version="1.1" xmlns="http://www.w3.org/2000/svg" p-id="9750"
     xmlns:xlink="http://www.w3.org/1999/xlink" width="48" height="48">
    <path d="M748.8 612.266667h-256c-17.066667 0-32-14.933333-32-32v-256c0-17.066667 14.933333-32 32-32s32 14.933333 32 32v224h224c17.066667 0 32 14.933333 32 32s-12.8 32-32 32z"
          p-id="9751"></path>
    <path d="M512 983.466667C251.733333 983.466667 40.533333 772.266667 40.533333 512S251.733333 40.533333 512 40.533333 983.466667 251.733333 983.466667 512C981.333333 772.266667 772.266667 981.333333 512 983.466667z m0-878.933334C288 104.533333 104.533333 288 104.533333 512S288 919.466667 512 919.466667 919.466667 736 919.466667 512C917.333333 288 736 106.666667 512 104.533333z"
          p-id="9752"></path>
</svg>