<?xml version="1.0" standalone="no"?><!DOCTYPE svg PUBLIC "-//W3C//DTD SVG 1.1//EN" "http://www.w3.org/Graphics/SVG/1.1/DTD/svg11.dtd"><svg t="1651802795420" class="icon" viewBox="0 0 1024 1024" version="1.1" xmlns="http://www.w3.org/2000/svg" p-id="8045" xmlns:xlink="http://www.w3.org/1999/xlink" width="48" height="48"><defs><style type="text/css">@font-face { font-family: "feedback-iconfont"; src: url("//at.alicdn.com/t/font_1031158_u69w8yhxdu.woff2?t=1630033759944") format("woff2"), url("//at.alicdn.com/t/font_1031158_u69w8yhxdu.woff?t=1630033759944") format("woff"), url("//at.alicdn.com/t/font_1031158_u69w8yhxdu.ttf?t=1630033759944") format("truetype"); }
</style></defs><path d="M512.219429 85.394286c234.971429 0 426.276571 191.268571 426.276571 426.24 0 234.971429-191.305143 426.276571-426.276571 426.276571-234.934857 0-426.24-191.305143-426.24-426.276571 0-234.934857 191.268571-426.24 426.24-426.24z m0 62.390857c-199.606857 0-363.885714 164.242286-363.885715 363.885714 0 199.570286 164.278857 363.849143 363.885715 363.849143 199.606857 0 363.885714-162.194286 363.885714-363.885714s-164.278857-363.885714-363.885714-363.885715z m-54.052572 214.162286l214.162286 124.745142c10.422857 6.217143 16.64 16.64 16.64 27.062858 0 10.386286-6.217143 20.772571-16.64 26.989714l-214.162286 124.781714c-4.169143 0-8.301714 2.084571-14.555428 2.084572-6.217143 0-10.386286-2.084571-16.64-4.169143-10.386286-6.217143-16.64-16.64-16.64-27.062857v-247.405715c0-10.386286 6.253714-20.809143 16.64-27.062857a28.342857 28.342857 0 0 1 31.195428 0z m16.64 81.078857v139.337143l120.612572-70.729143-120.612572-68.608z" p-id="8046"></path></svg>