<svg t="1651802321001" class="icon" viewBox="0 0 1045 1024" version="1.1" xmlns="http://www.w3.org/2000/svg" p-id="4167"
     xmlns:xlink="http://www.w3.org/1999/xlink" width="48.984375" height="48">
    <path d="M747.946667 382.72a32 32 0 0 1 2.218666 42.816l-2.197333 2.432-256 256a32 32 0 0 1-47.466667-42.837333l2.197334-2.432 256-256a32 32 0 0 1 45.269333 0z"
          p-id="4168"></path>
    <path d="M491.946667 638.72a32 32 0 0 1-42.816 47.445333l-2.432-2.197333-128-128a32 32 0 0 1 42.837333-47.466667l2.432 2.197334 128 128z"
          p-id="4169"></path>
    <path d="M384 96h-106.666667A117.333333 117.333333 0 0 0 160 213.333333v640a117.333333 117.333333 0 0 0 117.333333 117.333334h512a117.333333 117.333333 0 0 0 117.333334-117.333334V213.333333A117.333333 117.333333 0 0 0 789.333333 96h-106.666666a32 32 0 0 0-32 31.082667l-0.085334 3.754666c-0.938667 15.914667-14.933333 29.162667-31.914666 29.162667h-170.666667l-2.837333-0.085333c-14.976-0.896-27.584-13.354667-29.013334-28.949334L416 128A32 32 0 0 0 384 96z m323.648 68.096l1.536-4.096H789.333333a53.333333 53.333333 0 0 1 53.333334 53.333333v640a53.333333 53.333333 0 0 1-53.333334 53.333334H277.333333a53.333333 53.333333 0 0 1-53.333333-53.333334V213.333333l0.106667-3.498666A53.333333 53.333333 0 0 1 277.333333 160h80.149334l1.109333 3.029333a96.021333 96.021333 0 0 0 83.797333 60.8l4.693334 0.149334L618.666667 224a96.042667 96.042667 0 0 0 88.981333-59.904z"
          p-id="4170"></path>
    <path d="M618.666667 32h-170.666667a96 96 0 0 0 0 192h170.666667a96 96 0 0 0 0-192z m-170.666667 64h170.666667a32 32 0 1 1 0 64h-170.666667a32 32 0 1 1 0-64z"
          p-id="4171"></path>
</svg>